<?xml version="1.0" encoding="utf-8"?>
<!-- Generator: Adobe Illustrator 21.1.0, SVG Export Plug-In . SVG Version: 6.00 Build 0)  -->
<svg version="1.1" id="Layer_1" xmlns="http://www.w3.org/2000/svg" xmlns:xlink="http://www.w3.org/1999/xlink" x="0px" y="0px"
	 viewBox="0 0 328 312" style="enable-background:new 0 0 328 312;" xml:space="preserve">
<style type="text/css">
	.st0{fill:#FFFFFF;}
	.st1{fill:none;stroke:#F68B55;stroke-width:8;stroke-linecap:round;stroke-miterlimit:10;}
</style>
<g>
	<path class="st0" d="M22.8,158.6c-2.1,0.2-3.7,0-4.6-0.6c-1-0.6-1.6-1.9-1.9-3.8c-0.8-5.2-1.4-11.7-1.8-19.5
		c-0.4-7.8-0.4-15.4-0.1-22.8c0.1-1.4,0.6-2.4,1.5-3.2c1-0.8,2.3-1.4,4.1-1.8c3.1-0.7,4.9-0.2,5.3,1.5c0.2,0.7,0.2,1.6,0.1,2.6
		c-0.4,4.4-0.5,10.3-0.2,17.5c0.3,7.3,0.8,14.1,1.7,20.5c1.6-0.2,3.4-0.5,5.3-1c9-2.1,15.1-6.4,18.3-12.9c3.2-6.5,3.7-14.3,1.6-23.4
		c-1.4-6.1-4.3-10.5-8.5-13c-4.3-2.5-9.6-3.1-16-1.6c-4.1,1-8.1,2.5-11.8,4.8c-3.8,2.2-7,4.8-9.8,7.6c-0.6,0.6-1.2,1-2,1.2
		c-0.9,0.2-1.7,0-2.3-0.6c-0.7-0.6-1.2-1.5-1.4-2.6c-0.3-1.2-0.3-2.3-0.1-3.2c0.2-0.9,0.8-1.8,1.6-2.7c3-3.2,6.8-6.1,11.3-8.4
		c4.5-2.4,9-4.1,13.4-5.1c6.3-1.5,12-1.6,17.1-0.5s9.4,3.5,12.8,7.2c3.5,3.7,5.9,8.5,7.3,14.5c1.8,7.8,1.8,14.9,0.1,21.5
		c-1.8,6.5-5.2,12.1-10.4,16.6c-5.2,4.6-11.9,7.8-20.1,9.7C30.1,157.7,26.7,158.2,22.8,158.6z"/>
	<path class="st0" d="M113.4,114.1c0.5,0.6,0.9,1.4,1.1,2.4c0.6,2.5,0.2,4.1-1.2,4.9c-2.8,1.8-6.1,3.2-9.8,4.2
		c0,4.6-1.1,8.5-3.4,11.7c-2.3,3.3-5.3,5.3-8.9,6.2c-3.1,0.7-5.9,0.6-8.5-0.4c-2.5-1-4.7-2.6-6.4-4.8c-1.7-2.2-2.9-4.8-3.6-7.7
		c-0.9-3.9-1-7.6-0.2-11s2.3-6.3,4.5-8.6c2.2-2.3,4.9-3.9,8.1-4.6c3.9-0.9,7.4-0.3,10.4,1.9c3,2.2,5.2,5.2,6.5,9
		c2.4-0.7,5.2-1.9,8.3-3.5c0.4-0.2,0.7-0.3,1-0.4C112.3,113.3,112.9,113.5,113.4,114.1z M93.7,132.3c0.9-1.6,1.3-3.7,1.1-6.4
		c-1.8-0.7-3.4-1.8-4.7-3.4c-1.3-1.6-2.1-3.3-2.6-5.3c-0.2-0.8-0.3-1.7-0.3-2.5l-0.4,0.1c-2.1,0.5-3.6,1.9-4.5,4.2
		c-0.9,2.3-0.9,5.3-0.1,8.9c0.7,2.8,1.7,4.9,3.2,6.1c1.5,1.2,2.9,1.7,4.4,1.3C91.5,134.9,92.8,133.9,93.7,132.3z"/>
	<path class="st0" d="M166.3,101c0.8-0.2,1.4-0.1,2,0.4c0.5,0.4,0.9,1.1,1.1,1.9c0.4,1.6,0.3,2.9-0.1,4c-0.4,1-1.2,1.9-2.3,2.6
		c-2.2,1.3-4.6,2.3-7.3,2.9c-2.3,0.5-4.5,0.7-6.6,0.6c-0.9,2.8-2,5.7-3.2,8.7c-1.4,3.4-2.7,5.8-3.9,7.3c-1.2,1.4-2.8,2.3-4.6,2.8
		c-2.1,0.5-3.8,0-5.2-1.3c-1.4-1.4-2.7-3.8-3.8-7.4l-1.7-5.6c-0.6,4.7-1.3,8.3-2,10.9c-0.7,2.6-1.6,4.4-2.7,5.6
		c-1.1,1.2-2.4,2-4.1,2.3c-2.1,0.5-4,0-5.6-1.3c-1.6-1.4-3-3.8-4.1-7.3c-2.3-7.1-4.1-13.3-5.3-18.7l-0.6-2.7c-0.3-1.7-0.2-3,0.6-3.9
		c0.7-0.9,2-1.5,3.7-1.9c1.3-0.3,2.4-0.2,3.2,0.2c0.8,0.4,1.3,1.4,1.7,2.8c1.4,5.9,3.5,13.6,6.4,22.9c1.8-8.2,3.3-16.6,4.4-25.3
		c0.2-1.7,0.7-2.9,1.3-3.6c0.7-0.7,1.6-1.2,2.7-1.5c1.4-0.3,2.4-0.3,3.1,0.2c0.7,0.4,1.2,1.4,1.5,2.8c1.4,5.9,3.5,13.6,6.4,22.9
		c2-5.3,3.5-9.5,4.4-12.6c-1.1-1.3-1.9-3-2.4-5.1c-0.4-1.8-0.4-3.5,0-5.4c0.4-1.8,1.1-3.4,2.2-4.8c1.1-1.3,2.5-2.2,4.2-2.6
		c1.5-0.3,2.8-0.1,4,0.7c1.2,0.8,2,2.3,2.5,4.3c0.5,2.3,0.5,5.1,0,8.4c1.9-0.6,4.5-1.5,7.5-3l2-0.9C165.7,101.2,166,101.1,166.3,101
		z"/>
	<path class="st0" d="M168.2,122.6c-1.3-1.9-2.4-5.1-3.5-9.6c-1.5-6.7-2.1-13.3-1.5-19.8c0.1-1.6,0.6-2.9,1.5-3.8s2.3-1.6,4.2-2.1
		c1-0.2,1.8-0.3,2.3-0.1c0.5,0.2,0.8,0.6,1,1.3c0.2,0.8,0.2,2.8,0.1,5.8c0,2.2,0,4.1,0,5.7s0.2,3.6,0.5,5.9
		c0.7-4.8,1.8-8.9,3.2-12.2c1.5-3.3,3.1-5.7,4.9-7.4c1.8-1.7,3.5-2.7,5.2-3.1c1.6-0.4,3-0.2,4,0.4c1,0.7,1.8,1.8,2.1,3.5
		c0.3,1.3,0.6,3.9,0.9,7.8c0.2,3.3,0.5,6.3,0.8,9.2c0.3,2.9,0.9,6.1,1.7,9.5c0.5,2,0.4,3.5-0.2,4.5c-0.6,1-1.8,1.8-3.6,2.2
		c-1.7,0.4-3,0.2-4-0.5s-1.7-1.9-2.1-3.7c-0.5-2.1-0.9-5.6-1.3-10.5c-0.3-4.3-0.6-7-0.9-8.1c-0.2-0.8-0.6-1.2-1.1-1
		c-0.7,0.2-1.4,1.2-2.2,3.2s-1.5,4.6-2.1,7.7s-0.9,6.4-1,9.7c0,2.6-0.3,4.3-0.8,5.4c-0.6,1-1.6,1.7-3.2,2.1
		C171.1,125.2,169.5,124.5,168.2,122.6z"/>
</g>
<g>
	<path class="st0" d="M235.7,99.2c0.3,0.3,0.6,0.8,0.7,1.5c0.3,1.2,0.2,2.3-0.2,3.1c-1,1.9-2.1,3.6-3.4,5c-1.3,1.4-3,2.4-5.1,2.8
		c-6.3,1.5-10.5-2.3-12.5-11.1c-0.3-1.4-0.6-2.8-0.8-4.2l-1.8,0.4c-0.9,0.2-1.6,0.2-2-0.1c-0.4-0.3-0.7-0.8-0.9-1.5
		c-0.4-1.7,0.1-2.8,1.5-3.1l2.6-0.6c-0.3-3.5-0.2-6.8,0.3-9.9c0.4-3.1,1.2-5.6,2.4-7.6c1.1-2,2.6-3.2,4.4-3.6c1.3-0.3,2.5,0,3.5,1
		s1.7,2.3,2.1,4.1c1.1,4.8,0.1,9.4-3.1,13.9l5.2-1.2c0.5-0.1,0.9-0.1,1.1,0.1c0.3,0.2,0.5,0.5,0.6,1.1c0.5,2.1-1,3.6-4.5,4.4L220,95
		c0.3,1.6,0.5,2.8,0.7,3.6c0.7,3.2,1.6,5.4,2.7,6.5c1.1,1.1,2.4,1.5,4,1.1c1.3-0.3,2.4-1,3.3-2c0.8-1,1.8-2.5,2.8-4.5
		c0.3-0.5,0.6-0.8,1.1-0.9C235,98.7,235.4,98.9,235.7,99.2z M219.4,77.1c-0.3,1.3-0.5,3-0.5,5.2s0.1,4.6,0.3,7.1
		c1.5-2,2.4-4.1,2.9-6.3c0.5-2.2,0.5-4.1,0.1-5.7c-0.4-1.8-1-2.7-1.7-2.5C220.1,75.1,219.7,75.8,219.4,77.1z"/>
	<path class="st0" d="M259,93.8c0.3,0.3,0.6,0.8,0.7,1.5c0.3,1.2,0.2,2.3-0.2,3.1c-1,2-2.2,3.7-3.5,5.1c-1.3,1.4-2.8,2.3-4.8,2.8
		c-1.6,0.4-2.9,0.2-3.9-0.5s-1.7-2-2.1-3.7c-0.2-0.9-0.3-2.5-0.4-4.8c0-2-0.2-3.4-0.3-4.2c-0.1-0.5-0.3-0.7-0.7-0.6s-0.9,0.7-1.4,2
		c-0.5,1.2-0.9,2.7-1.3,4.6c-0.4,1.9-0.5,3.8-0.6,5.8c0,2.6-1.2,4.2-3.5,4.7c-0.9,0.2-1.6,0-2.1-0.6c-0.4-0.6-0.9-1.8-1.3-3.5
		c-0.2-1-0.4-1.8-0.5-2.4l-0.8-3.7c-1.1-4.8-1.8-9.8-2-15.2c-0.2-5.4,0.2-10.1,1.3-14c1.1-4,3-6.2,5.6-6.9c1.4-0.3,2.7,0,3.9,1
		s2,2.5,2.4,4.5c0.7,3.1,0.6,6.6-0.5,10.4s-3.1,8.4-6.2,13.8c0.3,1.6,0.6,3.3,1,5c0.4-2.9,1.1-5.3,1.9-7.2c0.9-1.9,1.8-3.4,2.9-4.4
		c1.1-1,2.1-1.6,3.1-1.8c2-0.5,3.3,0.3,3.7,2.3c0.3,1.2,0.4,3.5,0.5,6.8c0,2.8,0.2,4.7,0.4,5.5c0.3,1.2,0.9,1.8,1.8,1.5
		c0.6-0.1,1.3-0.7,1.9-1.6c0.7-1,1.5-2.4,2.6-4.5c0.3-0.5,0.6-0.8,1.1-0.9C258.4,93.4,258.7,93.5,259,93.8z M236.2,70.8
		c-0.3,1.8-0.5,4.1-0.5,6.9c0,2.9,0.2,5.9,0.5,9.2c1.4-2.7,2.4-5.5,3.1-8.5c0.6-3,0.7-5.5,0.2-7.7c-0.2-1-0.5-1.7-0.9-2.2
		c-0.3-0.5-0.7-0.7-1.1-0.6C237,68.1,236.5,69,236.2,70.8z"/>
	<path class="st0" d="M273.5,91.9c0.3,0.3,0.6,0.8,0.7,1.5c0.3,1.1,0.2,2.1-0.1,3.1c-0.6,1.5-1.5,2.8-2.7,3.9s-2.8,1.8-4.8,2.3
		c-3,0.7-5.5,0.3-7.5-1.1c-2.1-1.4-3.4-3.6-4.1-6.7c-0.5-2.1-0.5-4.2,0-6.3c0.5-2,1.4-3.8,2.7-5.3c1.3-1.5,3-2.4,5-2.9
		c1.8-0.4,3.4-0.2,4.7,0.6c1.3,0.8,2.2,2.1,2.6,4c0.5,2.1,0.2,4.1-1,6s-3.5,3.7-7,5.5c1.1,1.3,2.5,1.7,4.3,1.3
		c1.3-0.3,2.2-0.8,2.9-1.6c0.7-0.8,1.4-2,2.2-3.6c0.3-0.5,0.6-0.9,1.1-1C272.8,91.5,273.2,91.6,273.5,91.9z M260.5,87.9
		c-0.5,1.5-0.5,3.2-0.1,5.1v0.1c1.7-0.9,3-1.8,3.9-2.9s1.1-2.2,0.9-3.4c-0.1-0.6-0.4-1-0.8-1.3s-0.9-0.4-1.4-0.2
		C261.8,85.5,261,86.4,260.5,87.9z"/>
</g>
<g>
	<path class="st0" d="M169.6,210.9c0.7,0.7,1.2,1.7,1.5,3.1c0.6,2.6,0.4,4.8-0.5,6.7c-4.7,9.6-10.9,15.3-18.3,17
		c-6.5,1.5-12.2,0.2-17.3-3.9c-5-4.1-8.6-10.9-10.8-20.2c-0.5-2.3-0.9-4.6-1.3-6.9c-4.2,1.8-8.9,3.5-14,5.1c-3.4,1.1-5.7,1.8-7,2.1
		c0.2,7.1,0.3,15.9,0.2,26.4c-0.1,6.1-2.1,9.7-6,10.6c-4.3,1-6.9-0.5-7.8-4.3c-0.2-0.9-0.3-2.1-0.3-3.7c0.2-9.7,0.2-17.8,0-24.5
		l-4.8,1.3c-2.2,0.5-3.9,0.5-5.1,0s-2-1.7-2.4-3.4c-0.5-2.2-0.2-4,0.8-5.3s3-2.4,5.9-3.2l5.3-1.4c-0.4-9.8-1.2-17.2-2.4-22.1
		c-0.7-3.1-1.7-5.2-2.9-6.1c-1.2-0.9-2.6-1.2-4.1-0.8c-4.7,1.1-9.1,6.2-13.1,15.4c-0.6,1.3-1.4,2.1-2.5,2.4c-0.9,0.2-1.8,0-2.7-0.7
		s-1.5-1.7-1.8-3.1c-0.5-2.1-0.2-4.5,1-7.2c2-4.8,4.9-9,8.8-12.6c3.9-3.7,8.1-6,12.7-7.1c4.3-1,8-0.3,11.1,2.1
		c3.1,2.4,5.3,6.8,6.8,13.1c1.3,5.5,2.2,13.2,2.8,23.1l9.7-2.8c4.2-1.2,7.7-2.3,10.6-3.5c-0.5-7.6-0.2-14.9,0.7-21.9
		c1-7,2.9-12.9,5.6-17.8c2.7-4.9,6.4-7.8,10.9-8.9c3.3-0.8,6.3-0.1,8.8,2.1c2.5,2.2,4.3,5.4,5.3,9.7c3.8,16.6-2,30-17.4,40.3
		c0.4,2.7,1,5.5,1.6,8.4c1.6,7,3.6,11.8,6.1,14.3c2.4,2.5,5.2,3.4,8.3,2.7c2.7-0.6,5.1-1.9,7-3.9s3.9-5,6-9.1c0.6-1.1,1.4-1.8,2.4-2
		C168.2,209.9,168.9,210.2,169.6,210.9z M136.9,161.5c-1,3-1.7,7-2.1,12c-0.4,4.9-0.4,10.3,0,15.9c4.8-3.4,8.1-7.5,9.7-12.2
		c1.6-4.7,1.7-10.2,0.2-16.6c-0.4-1.5-0.9-2.7-1.6-3.4c-0.7-0.7-1.5-1-2.3-0.8C139.2,156.8,137.9,158.5,136.9,161.5z"/>
	<path class="st0" d="M168.6,229.1c-3.2-2.4-5.3-6.1-6.4-11c-1.2-5.3-1.2-10.7,0.2-16s3.8-9.9,7.2-13.8c3.4-3.9,7.5-6.3,12.1-7.4
		c1.5-0.3,2.5-0.3,3.2,0.2c0.6,0.5,1.3,1.4,2,2.8c1.3-0.6,2.8-1.1,4.3-1.4c3.3-0.8,5.2,0,5.7,2.4c0.3,1.4,0.6,4.9,0.8,10.4
		c0.2,8,0.7,13.6,1.4,16.6c0.2,1,0.7,1.7,1.3,2.2s1.4,0.6,2.2,0.4c1.3-0.3,2.6-1.5,4-3.5c1.4-2.1,3.3-5.3,5.5-9.7
		c0.6-1.1,1.4-1.8,2.4-2c0.9-0.2,1.6,0,2.3,0.7s1.2,1.7,1.5,3.1c0.6,2.7,0.5,4.9-0.5,6.7c-2,4-4.2,7.6-6.7,10.6s-5.2,4.9-8.1,5.6
		c-2.2,0.5-4.4,0.2-6.6-0.9c-2.2-1.1-4-2.8-5.6-5.2c-2.2,6.4-5.9,10.2-11.2,11.4C175.4,232.3,171.8,231.6,168.6,229.1z M184.5,216.8
		c0.9-2,1.4-4.6,1.3-7.6l-0.5-19.3c-2.8,0.7-5.1,2.4-7,5s-3.2,5.7-3.8,9.4s-0.5,7.4,0.3,11.1c0.5,2.1,1.2,3.5,2.3,4.3s2.3,1,3.8,0.7
		C182.3,220.1,183.5,218.9,184.5,216.8z"/>
	<path class="st0" d="M256.1,190.9c0.7,0.7,1.2,1.7,1.5,3.1c0.6,2.7,0.5,4.9-0.5,6.7c-2.1,4.2-4.5,7.8-7.4,10.9
		c-2.9,3.1-6.5,5.1-10.9,6.1c-13.6,3.1-22.7-4.9-27.1-24c-0.7-2.9-1.3-5.9-1.8-9l-3.9,0.9c-2,0.5-3.4,0.4-4.3-0.2
		c-0.9-0.6-1.5-1.7-1.9-3.3c-0.9-3.7,0.2-6,3.2-6.7l5.7-1.3c-0.6-7.6-0.4-14.7,0.6-21.3c0.9-6.6,2.6-12.1,5.1-16.5s5.6-7,9.4-7.9
		c2.8-0.6,5.3,0.1,7.5,2.2c2.2,2.1,3.7,5,4.6,8.8c2.4,10.4,0.1,20.4-6.8,30.1l11.2-2.6c1.1-0.2,1.9-0.2,2.5,0.2s1,1.2,1.3,2.4
		c1.1,4.6-2.2,7.8-9.7,9.5l-12.2,2.8c0.6,3.4,1.2,6,1.6,7.9c1.6,7,3.5,11.6,5.8,14.1c2.3,2.4,5.2,3.2,8.7,2.4c2.9-0.7,5.2-2.1,7-4.4
		c1.8-2.2,3.8-5.5,6-9.6c0.6-1.1,1.4-1.8,2.4-2C254.7,190,255.4,190.2,256.1,190.9z M220.9,143.2c-0.7,2.8-1,6.5-1.1,11.2
		s0.1,9.8,0.7,15.4c3.2-4.3,5.2-8.8,6.2-13.5s1.1-8.8,0.3-12.3c-0.9-3.9-2.1-5.7-3.6-5.4C222.4,138.9,221.6,140.4,220.9,143.2z"/>
	<path class="st0" d="M256.3,207.8c-4.5-2.9-7.4-7.3-8.9-13.4c-1.2-5.4-1.3-10.4-0.1-15s3.2-8.3,6.1-11.3c2.9-3,6.2-4.9,10-5.8
		c3.7-0.8,6.8-0.4,9.3,1.3s4.2,4.3,5,7.7c0.6,2.8,0.6,5.3-0.2,7.5c-0.8,2.2-2.2,3.6-4.2,4c-1.3,0.3-2.4,0.2-3.3-0.2
		s-1.5-1.2-1.7-2.2c-0.1-0.5-0.2-1-0.2-1.7c0-0.6,0-1.1,0-1.4c0.1-1.1,0.1-2.1-0.1-2.9c-0.2-0.9-0.6-1.5-1.1-1.9s-1.2-0.5-2-0.3
		c-1.5,0.4-2.8,1.4-3.8,3c-1,1.7-1.7,3.8-1.9,6.3c-0.3,2.5-0.1,5.2,0.6,8c1.8,7.8,6.1,10.8,12.8,9.3c2.7-0.6,5.5-2.2,8.2-4.8
		s5.2-6,7.5-10.4c0.6-1.1,1.4-1.8,2.4-2c0.9-0.2,1.6,0,2.3,0.7c0.7,0.7,1.2,1.7,1.5,3.1c0.6,2.5,0.4,4.8-0.5,6.7
		c-2.2,4.6-5.3,8.5-9.2,11.6c-3.9,3.1-7.9,5.1-11.9,6.1C266.3,211.3,260.8,210.7,256.3,207.8z"/>
	<path class="st0" d="M320.5,150.9c1.4,0.8,2.3,2.3,2.8,4.5c0.4,1.7,0.8,5.1,1.2,10.1c0.3,4.2,0.6,8.2,1.1,11.9
		c0.4,3.7,1.2,7.8,2.2,12.3c0.6,2.5,0.5,4.5-0.3,5.8s-2.3,2.3-4.7,2.8c-2.2,0.5-3.9,0.3-5.2-0.6c-1.3-0.9-2.2-2.5-2.7-4.8
		c-0.6-2.7-1.2-7.2-1.6-13.6c-0.4-5.5-0.8-9-1.2-10.5c-0.2-1.1-0.7-1.5-1.5-1.4c-0.9,0.2-1.8,1.6-2.9,4.2c-1.1,2.6-2,5.9-2.8,10
		c-0.8,4-1.2,8.2-1.2,12.5c0,3.3-0.4,5.6-1.1,7c-0.7,1.3-2.1,2.2-4.2,2.7s-3.8,0.1-5.1-1.2c-1.3-1.3-2.5-3.4-3.6-6.5
		s-2.3-7.6-3.7-13.7c-2.4-10.3-3.8-21.3-4.3-32.9c-0.5-11.6,0.5-21.7,2.8-30.3c2.4-8.5,6.4-13.5,12.2-14.8c3.1-0.7,5.9,0,8.4,2.2
		s4.3,5.4,5.2,9.6c1.6,6.7,1.2,14.2-1.1,22.4c-2.3,8.2-6.7,18.1-13.4,29.8c0.6,3.5,1.3,7.1,2.2,10.8c0.9-6.2,2.3-11.4,4.2-15.6
		c1.9-4.2,4-7.4,6.2-9.5c2.3-2.1,4.5-3.5,6.7-4C317.3,149.8,319.1,150,320.5,150.9z M294.1,121.1c-0.7,3.8-1,8.8-1,14.9
		c0,6.2,0.3,12.8,1,19.9c3-5.8,5.2-11.9,6.6-18.3c1.4-6.4,1.5-11.9,0.5-16.6c-0.5-2.1-1.1-3.7-1.8-4.7c-0.7-1-1.5-1.4-2.4-1.2
		C295.7,115.3,294.8,117.3,294.1,121.1z"/>
</g>
<path class="st1" d="M299.5,223.7c-24.9,50-76.5,84.3-136.1,84.3c-78,0-142.2-58.7-151-134.3"/>
<path class="st1" d="M38.5,69.3c0.8-1.2,1.7-2.4,2.6-3.6C68.7,28.3,113.2,4,163.3,4c48.9,0,92.3,23,120.1,58.9
	c4,5.1,7.6,10.5,10.9,16.1"/>
</svg>
