<?xml version="1.0" encoding="utf-8"?>
<svg version="1.1" id="Layer_1" xmlns="http://www.w3.org/2000/svg" xmlns:xlink="http://www.w3.org/1999/xlink" x="0px" y="0px"
	 viewBox="0 0 360 360" style="enable-background:new 0 0 360 360;" xml:space="preserve">
<style type="text/css">
	.st0{fill:#FFFFFF;}
</style>
<path class="st0" d="M324,340H36c-19.9,0-36-16.1-36-36v0c0-19.9,16.1-36,36-36h288c19.9,0,36,16.1,36,36v0
	C360,323.9,343.9,340,324,340z"/>
<path class="st0" d="M324,92H36C16.1,92,0,75.9,0,56v0c0-19.9,16.1-36,36-36h288c19.9,0,36,16.1,36,36v0C360,75.9,343.9,92,324,92z"
	/>
<path class="st0" d="M324,216H36c-19.9,0-36-16.1-36-36v0c0-19.9,16.1-36,36-36h288c19.9,0,36,16.1,36,36v0
	C360,199.9,343.9,216,324,216z"/>
</svg>